<svg xmlns="http://www.w3.org/2000/svg" viewBox="0 0 1024 820" width="1024" height="820">
	<style>
		tspan { white-space:pre }
		.shp0 { fill: #10171d } 
		.shp1 { fill: #e6e6e6 } 
		.shp2 { fill: #18a497 } 
	</style>
	<g id="Group 1">
		<path id="Shape 1" class="shp0" d="M0 0L1024 0L1024 820L0 820L0 0Z" />
	</g>
	<path id="Photopea" fill-rule="evenodd" class="shp1" d="M328.8 199L328.8 95.12L365.76 95.12C390.4 95.12 402.72 106.3 402.72 128.66C402.72 140.23 399.6 148.84 393.37 154.48C387.14 160.12 378.08 162.94 366.21 162.94L347.8 162.94L347.8 199L328.8 199ZM347.8 147.06L363.98 147.06C370.51 147.06 375.36 145.58 378.53 142.61C381.8 139.64 383.43 135.09 383.43 128.95C383.43 122.82 381.8 118.32 378.53 115.45C375.26 112.48 370.27 111 363.54 111L347.8 111L347.8 147.06ZM471.9 132.81C476.55 138.85 478.87 147.16 478.87 157.74L478.87 199L460.47 199L460.47 159.08C460.47 152.05 459.33 146.91 457.05 143.65C454.78 140.38 451.17 138.75 446.22 138.75C440.38 138.75 435.58 140.88 431.82 145.13L431.82 199L413.41 199L413.41 87.7L431.82 87.7L431.82 129.55C434.79 127.67 437.8 126.23 440.87 125.24C443.94 124.15 447.3 123.61 450.97 123.61C460.37 123.61 467.35 126.68 471.9 132.81ZM529.05 200.48C521.23 200.48 514.45 198.75 508.71 195.29C502.97 191.83 498.57 187.18 495.5 181.34C492.43 175.5 490.9 169.07 490.9 162.05C490.9 155.02 492.43 148.54 495.5 142.61C498.57 136.67 502.97 131.97 508.71 128.51C514.45 125.05 521.23 123.32 529.05 123.32C536.86 123.32 543.64 125.05 549.38 128.51C555.12 131.97 559.52 136.67 562.59 142.61C565.66 148.54 567.19 155.02 567.19 162.05C567.19 169.07 565.66 175.5 562.59 181.34C559.52 187.18 555.12 191.83 549.38 195.29C543.64 198.75 536.86 200.48 529.05 200.48ZM529.05 185.35C535.08 185.35 539.78 183.22 543.15 178.97C546.61 174.71 548.34 169.07 548.34 162.05C548.34 154.92 546.61 149.23 543.15 144.98C539.78 140.63 535.08 138.45 529.05 138.45C523.01 138.45 518.26 140.63 514.8 144.98C511.43 149.23 509.75 154.92 509.75 162.05C509.75 169.07 511.43 174.71 514.8 178.97C518.26 183.22 523.01 185.35 529.05 185.35ZM588.42 194.84C585.05 190.99 583.37 186.39 583.37 181.04L583.37 139.94L572.83 139.94L574.47 124.8L583.37 124.8L583.37 108.48L601.78 106.55L601.78 124.8L618.11 124.8L618.11 139.94L601.78 139.94L601.78 173.48C601.78 177.43 601.98 180.2 602.37 181.79C602.87 183.27 603.81 184.26 605.19 184.75C606.68 185.15 609.3 185.35 613.06 185.35L618.11 185.35L616.47 200.48L603.26 200.48C596.73 200.48 591.79 198.6 588.42 194.84ZM663.83 200.48C656.01 200.48 649.23 198.75 643.49 195.29C637.75 191.83 633.35 187.18 630.28 181.34C627.21 175.5 625.68 169.07 625.68 162.05C625.68 155.02 627.21 148.54 630.28 142.61C633.35 136.67 637.75 131.97 643.49 128.51C649.23 125.05 656.01 123.32 663.83 123.32C671.64 123.32 678.42 125.05 684.16 128.51C689.9 131.97 694.3 136.67 697.37 142.61C700.44 148.54 701.97 155.02 701.97 162.05C701.97 169.07 700.44 175.5 697.37 181.34C694.3 187.18 689.9 191.83 684.16 195.29C678.42 198.75 671.64 200.48 663.83 200.48ZM663.83 185.35C669.86 185.35 674.56 183.22 677.93 178.97C681.39 174.71 683.12 169.07 683.12 162.05C683.12 154.92 681.39 149.23 677.93 144.98C674.56 140.63 669.86 138.45 663.83 138.45C657.79 138.45 653.04 140.63 649.58 144.98C646.21 149.23 644.53 154.92 644.53 162.05C644.53 169.07 646.21 174.71 649.58 178.97C653.04 183.22 657.79 185.35 663.83 185.35ZM771.59 128.81C776.64 132.27 780.45 136.92 783.02 142.76C785.59 148.59 786.88 155.02 786.88 162.05C786.88 169.07 785.59 175.5 783.02 181.34C780.45 187.18 776.64 191.83 771.59 195.29C766.54 198.75 760.51 200.48 753.48 200.48C749.03 200.48 745.22 200.04 742.05 199.15C738.98 198.16 736.02 196.62 733.15 194.55L733.15 234.91L714.74 234.91L714.74 124.8L729.58 124.8L731.51 131.63C734.68 128.96 737.99 126.98 741.46 125.69C744.92 124.3 748.93 123.61 753.48 123.61C760.51 123.61 766.54 125.34 771.59 128.81ZM763.43 178.97C766.5 174.71 768.03 169.07 768.03 162.05C768.03 155.02 766.5 149.38 763.43 145.13C760.36 140.88 756.11 138.75 750.66 138.75C744.53 138.75 739.93 140.83 736.86 144.98C733.79 149.13 732.26 154.82 732.26 162.05C732.26 169.27 733.79 174.96 736.86 179.11C739.93 183.27 744.53 185.35 750.66 185.35C756.11 185.35 760.36 183.22 763.43 178.97ZM813.3 195.29C807.27 191.73 802.72 187.03 799.65 181.19C796.68 175.26 795.19 168.68 795.19 161.45C795.19 154.53 796.63 148.2 799.5 142.46C802.37 136.72 806.52 132.17 811.97 128.81C817.41 125.34 823.89 123.61 831.41 123.61C838.34 123.61 844.18 125.05 848.93 127.92C853.78 130.79 857.39 134.64 859.76 139.49C862.23 144.34 863.47 149.78 863.47 155.82C863.47 158.79 863.08 162.15 862.29 165.91L814.34 165.91C815.33 172.44 817.91 177.33 822.06 180.6C826.21 183.77 831.21 185.35 837.05 185.35C845.07 185.35 852.49 183.32 859.32 179.26L860.21 194.84C857.04 196.53 853.33 197.91 849.08 199C844.92 199.99 840.37 200.48 835.42 200.48C826.81 200.48 819.44 198.75 813.3 195.29ZM814.79 153.44L844.77 153.44C844.77 149.58 843.68 146.17 841.51 143.2C839.33 140.23 835.96 138.75 831.41 138.75C826.86 138.75 823.2 140.09 820.43 142.76C817.66 145.43 815.78 148.99 814.79 153.44ZM876.69 194.55C872.63 190.49 870.6 185.05 870.6 178.22C870.6 171.79 872.93 166.65 877.58 162.79C882.23 158.83 887.72 156.06 894.05 154.48C900.38 152.8 906.47 151.86 912.31 151.66C912.11 147.31 910.97 144.19 908.9 142.31C906.92 140.43 903.6 139.49 898.95 139.49C895.68 139.49 892.47 139.94 889.3 140.83C886.23 141.72 882.67 143.15 878.62 145.13L876.98 130.14C885.99 125.79 894.99 123.61 904 123.61C912.71 123.61 919.34 125.99 923.89 130.74C928.54 135.49 930.87 143.05 930.87 153.44L930.87 173.48C930.87 177.23 931.02 179.95 931.31 181.64C931.7 183.22 932.3 184.26 933.09 184.75C933.98 185.15 935.42 185.35 937.4 185.35L939.77 185.35L938.14 200.48L931.46 200.48C927.4 200.48 923.99 199.74 921.22 198.26C918.45 196.67 916.32 194.55 914.83 191.88C912.46 194.55 909.19 196.67 905.04 198.26C900.98 199.74 896.67 200.48 892.12 200.48C885.99 200.48 880.84 198.5 876.69 194.55ZM906.22 185.05C908.6 184.06 910.68 182.73 912.46 181.04L912.46 164.13C906.52 164.42 901.27 165.71 896.72 167.98C892.17 170.26 889.9 173.43 889.9 177.48C889.9 180.55 890.69 182.82 892.27 184.31C893.86 185.7 896.38 186.39 899.84 186.39C901.72 186.39 903.85 185.94 906.22 185.05Z" />
	<path id="Solid Color Fill 11" fill-rule="evenodd" class="shp2" d="M129.96 59.33L247.18 59.33C262.8 59.33 275.43 71.95 275.43 87.57L275.43 204.76C275.43 220.38 262.8 233 247.18 233L147.98 233L147.65 158.18L147.6 158.18L147.6 157.65C147.6 129.28 170.13 106.35 198.01 106.35C214.73 106.35 228.25 120.11 228.25 137.13C228.25 154.15 214.73 167.91 198.01 167.91C192.43 167.91 187.93 163.32 187.93 157.65C187.93 151.97 192.43 147.39 198.01 147.39C203.58 147.39 208.09 142.8 208.09 137.13C208.09 131.45 203.58 126.87 198.01 126.87C181.28 126.87 167.77 140.63 167.77 157.65C167.77 174.67 181.28 188.42 198.01 188.42C225.88 188.42 248.41 165.49 248.41 137.13C248.41 108.76 225.88 85.83 198.01 85.83C158.99 85.83 127.44 117.93 127.44 157.65L127.44 158.27L127.28 158.27L127.61 232.91C113.09 231.72 101.71 219.59 101.71 204.76L101.71 87.57C101.71 71.95 114.34 59.33 129.96 59.33Z" />
</svg>