<svg xmlns="http://www.w3.org/2000/svg" viewBox="0 0 1024 820" width="1024" height="820">
	<defs>
		<linearGradient id="grd1" gradientUnits="userSpaceOnUse"  x1="730.485" y1="655" x2="730.485" y2="59">
			<stop offset="0" stop-color="#10171d"  />
			<stop offset="1" stop-color="#090e11"  />
		</linearGradient>
	</defs>
	<style>
		tspan { white-space:pre }
		.shp0 { fill: #10171d } 
		.shp1 { fill: url(#grd1) } 
		.shp2 { fill: #e6e6e6 } 
		.shp3 { fill: #18a497 } 
	</style>
	<g id="Group 1">
		<path id="Shape 1" class="shp0" d="M0 0L1024 0L1024 820L0 820L0 0Z" />
	</g>
	<path id="shadow" fill-rule="evenodd" class="shp1" d="M124.5 59.05L252 59L257.75 61.58C262.3 63.63 266.11 66.84 276 76.98C282.88 84.02 289.44 90.85 290.59 92.14C291.74 93.44 293.76 95.47 295.09 96.66C296.41 97.84 304.25 105.62 312.5 113.94C320.75 122.26 327.84 129.06 328.25 129.04C328.66 129.02 329 121.35 329 95L350.25 94.99C361.94 94.98 373.98 95.45 377 96.02C380.02 96.59 384.3 97.91 386.5 98.97C388.7 100.02 391.97 102.37 393.78 104.19C395.58 106.01 400.53 111.09 412.5 123.45L413 88L432 88L432 98L442 98L442 108L451 108L451 118L461 118L461 121.5C461 124.47 461.49 125.23 464.25 126.52C466.04 127.36 468.18 128.02 469 128C469.83 127.97 470.81 129.2 471.18 130.73C471.56 132.25 472.79 134.51 473.93 135.75C475.07 136.99 477.13 138 478.5 138C480.43 138 481 138.52 481 140.25C480.99 141.49 482.12 143.74 483.5 145.25C484.95 146.85 487.05 148 488.5 148C490.41 148 491.01 148.53 491.05 150.25C491.08 151.7 492.16 150.2 494.11 146C495.77 142.43 498.68 137.59 500.57 135.25C502.77 132.52 506.41 129.8 510.75 127.64C515.11 125.48 519.8 124.03 524 123.55C527.89 123.11 532.91 123.26 536.5 123.93C539.8 124.54 544.52 126.02 547 127.22C549.96 128.66 556.89 134.9 582.96 161.5L583 150L573.5 150L573.58 141.25C573.63 136.44 573.74 130.81 574 125L583 125L583 117C583 112.6 583.34 108.81 583.75 108.58C584.16 108.35 588.44 107.79 602.02 106.5L602.02 117.5L612.02 116.5L612.01 120.75C612 124.81 612.14 125 615 125C616.65 125 618 125.45 618 126C618 126.55 618.67 127 619.5 127C620.58 127 621 128.11 621 131C621 134.9 621.08 135 624.5 135C626.42 135 628 135.45 628 136C628 136.55 628.67 137 629.5 137C630.33 137 631.11 137.51 631.25 138.13C631.39 138.75 633.98 136.82 637 133.84C640.69 130.2 644.39 127.69 648.25 126.21C651.41 124.99 656.81 123.72 660.25 123.38C664.55 122.96 668.45 123.27 672.75 124.38C676.19 125.27 680.69 126.87 682.75 127.93C684.81 128.99 687.85 131.17 689.5 132.77C691.15 134.37 697.23 140.5 703 146.38C708.77 152.26 713.84 157.06 714.25 157.04C714.66 157.02 715 149.8 715 125L730 125L730.5 128C730.77 129.65 731.23 131 731.5 131C731.77 131 733.69 129.91 735.75 128.58C737.81 127.25 741.3 125.63 743.5 124.98C745.73 124.32 751.04 123.97 755.5 124.18C760.63 124.43 764.94 125.26 767.5 126.49C769.77 127.57 776.68 133.72 795.5 153.06L797.36 147.78C798.39 144.88 800.52 140.59 802.11 138.25C803.7 135.91 807.14 132.4 809.75 130.44C812.36 128.48 816.98 126.18 820 125.31C823.79 124.24 828.15 123.88 834 124.17C840.85 124.51 843.47 125.13 847.5 127.32C850.29 128.85 855.81 133.63 860 138.15C864.13 142.61 870.54 149.35 881 160L884.52 158.25C887 157.02 888.04 155.84 888.02 154.25C888.01 152.93 887.38 152 886.5 152C885.67 152 883.65 152.68 882 153.5C879.13 154.93 878.98 154.9 878.49 152.75C878.2 151.51 877.87 145.8 877.5 129.6L884.5 127.13C889.75 125.27 894.13 124.55 902 124.26C911.67 123.9 912.91 124.07 917.75 126.43C920.64 127.85 923.84 130.24 924.87 131.75C925.89 133.26 933.47 141.25 941.7 149.5C949.93 157.75 956.85 164.97 957.08 165.54C957.31 166.11 958.96 167.57 960.75 168.79C962.54 170 964.7 172.24 965.56 173.75C966.42 175.26 968.67 177.51 970.56 178.75C972.45 179.99 974.7 182.24 975.56 183.75C976.42 185.26 978.67 187.51 980.56 188.75C982.45 189.99 984.7 192.24 985.56 193.75C986.42 195.26 988.67 197.51 990.56 198.75C992.45 199.99 994.7 202.24 995.56 203.75C996.42 205.26 998.67 207.51 1000.56 208.75C1002.45 209.99 1004.7 212.24 1005.56 213.75C1006.42 215.26 1008.67 217.51 1010.56 218.75C1012.45 219.99 1014.7 222.24 1015.56 223.75C1016.42 225.26 1018.67 227.51 1020.56 228.75C1022.45 229.99 1024.7 232.24 1025.56 233.75C1026.42 235.26 1028.67 237.51 1030.56 238.75C1032.45 239.99 1034.7 242.24 1035.56 243.75C1036.42 245.26 1038.67 247.51 1040.56 248.75C1042.45 249.99 1044.7 252.24 1045.56 253.75C1046.42 255.26 1048.67 257.51 1050.56 258.75C1052.45 259.99 1054.7 262.24 1055.56 263.75C1056.42 265.26 1058.67 267.51 1060.56 268.75C1062.45 269.99 1064.7 272.24 1065.56 273.75C1066.42 275.26 1068.67 277.51 1070.56 278.75C1072.45 279.99 1074.7 282.24 1075.56 283.75C1076.42 285.26 1078.67 287.51 1080.56 288.75C1082.45 289.99 1084.7 292.24 1085.56 293.75C1086.42 295.26 1088.67 297.51 1090.56 298.75C1092.45 299.99 1094.7 302.24 1095.56 303.75C1096.42 305.26 1098.67 307.51 1100.56 308.75C1102.45 309.99 1104.79 312.33 1105.75 313.96C1106.71 315.6 1108.74 317.62 1110.25 318.46C1111.76 319.31 1114.01 321.53 1115.25 323.4C1116.49 325.27 1118.96 327.74 1120.75 328.9C1122.54 330.05 1124.7 332.24 1125.56 333.75C1126.42 335.26 1128.67 337.51 1130.56 338.75C1132.45 339.99 1134.7 342.24 1135.56 343.75C1136.42 345.26 1138.67 347.51 1140.56 348.75C1142.45 349.99 1144.79 352.33 1145.75 353.96C1146.71 355.6 1148.74 357.62 1150.25 358.46C1151.76 359.31 1154.01 361.55 1155.25 363.44C1156.49 365.33 1158.74 367.58 1160.25 368.44C1161.76 369.3 1164.01 371.55 1165.25 373.44C1166.49 375.33 1168.74 377.58 1170.25 378.44C1171.76 379.3 1174.01 381.55 1175.25 383.44C1176.49 385.33 1178.74 387.58 1180.25 388.44C1181.76 389.3 1184.01 391.55 1185.25 393.44C1186.49 395.33 1188.74 397.58 1190.25 398.44C1191.76 399.3 1194.01 401.55 1195.25 403.44C1196.49 405.33 1198.74 407.58 1200.25 408.44C1201.76 409.3 1204.01 411.55 1205.25 413.44C1206.49 415.33 1208.74 417.58 1210.25 418.44C1211.76 419.3 1214.01 421.55 1215.25 423.44C1216.49 425.33 1218.74 427.58 1220.25 428.44C1221.76 429.3 1224.01 431.55 1225.25 433.44C1226.49 435.33 1228.74 437.58 1230.25 438.44C1231.76 439.3 1234.01 441.55 1235.25 443.44C1236.49 445.33 1238.74 447.58 1240.25 448.44C1241.76 449.3 1244.01 451.55 1245.25 453.44C1246.49 455.33 1248.74 457.58 1250.25 458.44C1251.76 459.3 1254.01 461.55 1255.25 463.44C1256.49 465.33 1258.74 467.58 1260.25 468.44C1261.76 469.3 1264.01 471.55 1265.25 473.44C1266.49 475.33 1268.74 477.58 1270.25 478.44C1271.76 479.3 1274.01 481.55 1275.25 483.44C1276.49 485.33 1278.74 487.58 1280.25 488.44C1281.76 489.3 1284.01 491.55 1285.25 493.44C1286.49 495.33 1288.74 497.58 1290.25 498.44C1291.76 499.3 1294.01 501.55 1295.25 503.44C1296.49 505.33 1298.74 507.58 1300.25 508.44C1301.76 509.3 1304.01 511.55 1305.25 513.44C1306.49 515.33 1308.74 517.58 1310.25 518.44C1311.76 519.3 1314.01 521.55 1315.25 523.44C1316.49 525.33 1318.74 527.58 1320.25 528.44C1321.76 529.3 1324.01 531.55 1325.25 533.44C1326.49 535.33 1328.74 537.58 1330.25 538.44C1331.76 539.3 1333.96 541.46 1335.13 543.25C1336.3 545.04 1338.89 547.64 1340.88 549.03C1342.9 550.44 1345.6 553.76 1346.99 556.53C1349.32 561.18 1349.52 562.84 1350.15 582.5C1350.76 601.3 1351.02 603.63 1352.66 604.77C1353.67 605.46 1355.51 606.03 1356.75 606.02C1358.24 606.01 1359 606.59 1358.99 607.75C1358.99 608.71 1358.65 611.87 1357.5 620.03L1347 620.02C1338.69 620.02 1335.77 619.63 1333 618.16C1329.6 616.35 1329.34 616.35 1324 618.11C1320.14 619.39 1315.37 619.95 1308 619.98C1298.76 620.02 1296.9 619.73 1292.5 617.53C1289.63 616.1 1286.43 613.48 1285 611.4C1283.63 609.39 1281.71 607.36 1280.75 606.88C1279.18 606.09 1279.06 606.43 1280.25 614.5L1275.87 616.22C1273.47 617.17 1269.03 618.46 1266 619.09C1262.68 619.79 1255.34 620.06 1247.5 619.78C1237.01 619.41 1233.34 618.87 1228.5 616.98C1223.79 615.15 1220.56 612.75 1204.5 597.06L1202.14 601.78C1200.85 604.38 1198.15 608.23 1196.14 610.34C1194.14 612.45 1190.25 615.37 1187.5 616.84C1182.73 619.37 1181.81 619.5 1153 619.5L1153 655L1125 655L1125 645L1115 645L1115 635L1105 635L1105 625L1100 625C1095.21 625 1095 624.88 1095 619.5L1079.25 619.5C1064.05 619.5 1063.29 619.4 1057.5 616.67C1052.69 614.41 1048.47 610.78 1021 583L1021 596L1027.5 596L1027 606L1032.25 606.02C1037.07 606.04 1037.48 606.22 1037.29 608.27C1037.18 609.5 1036.84 612.64 1036 620L1022.25 620.01C1009.96 620.02 1008.02 619.78 1004.01 617.76C1001.54 616.52 998.46 613.92 997.17 612C995.88 610.08 993.51 607.71 991.91 606.75C990.31 605.79 988.1 603.42 987 601.5C985.9 599.58 984.66 598.01 984.25 598.01C983.84 598.02 982.34 600.16 980.92 602.76C979.5 605.37 976.35 609.16 973.92 611.18C971.49 613.21 967.25 615.91 964.5 617.18C959.97 619.28 958.08 619.5 944.5 619.5C930.87 619.5 928.95 619.27 923.5 617.04C918.72 615.08 915.52 612.59 898 595L898 619L871 619L871 609L861 609L861 599L851 599L851 619L824 619L824 609L814 609L814 599L804 599L804 589L794 589L794.03 581.5L788.76 582.24C785.87 582.65 779.79 582.99 767 583L767 619L739 619L739 609L729 609L729 599L719 599L719 589L709 589L709 579L699 579L699 574C699 569.67 698.73 569 697 569C695.05 569 694.99 569.75 694.75 600.75C694.51 631.5 694.43 632.63 692.25 636.75C691.01 639.09 688.54 642.47 686.75 644.26C684.96 646.06 681.25 648.64 673.5 652.5L558 653L558 643L548 643L547.68 637.75C547.51 634.86 547.29 636.89 547.18 642.25C547.01 651.27 546.85 652 545 652C543.9 652 541.8 651.44 540.33 650.75C538.19 649.75 537.59 649.75 537.33 650.75C537.15 651.44 536.21 652.01 535.25 652.02C534.29 652.04 531.7 651.32 529.5 650.43C526.44 649.19 479.36 602.72 329.5 453.01C221.7 345.32 127.09 250.87 119.25 243.11C106.48 230.47 104.84 228.45 103.49 223.75C102.21 219.3 101.98 208.15 101.98 150.5C101.98 92.86 102.2 81.81 103.47 78C104.29 75.53 106.66 71.54 108.73 69.14C110.98 66.54 114.92 63.62 118.5 61.92L124.5 59.05ZM1260.38 593.63C1260.45 593.71 1261.51 593.37 1262.75 592.88C1264.6 592.16 1264.82 591.64 1264 590C1263.45 588.9 1262.1 587.52 1261 586.93C1259.12 585.93 1259.04 586.1 1259.63 589.68C1259.98 591.78 1260.32 593.56 1260.38 593.63ZM1270.38 603.63C1270.45 603.71 1271.51 603.37 1272.75 602.88C1274.6 602.16 1274.82 601.64 1274 600C1273.45 598.9 1272.1 597.52 1271 596.93C1269.12 595.93 1269.04 596.1 1269.63 599.68C1269.98 601.78 1270.32 603.56 1270.38 603.63Z" />
	<path id="Photopea" fill-rule="evenodd" class="shp2" d="M328.8 199L328.8 95.12L365.76 95.12C390.4 95.12 402.72 106.3 402.72 128.66C402.72 140.23 399.6 148.84 393.37 154.48C387.14 160.12 378.08 162.94 366.21 162.94L347.8 162.94L347.8 199L328.8 199ZM347.8 147.06L363.98 147.06C370.51 147.06 375.36 145.58 378.53 142.61C381.8 139.64 383.43 135.09 383.43 128.95C383.43 122.82 381.8 118.32 378.53 115.45C375.26 112.48 370.27 111 363.54 111L347.8 111L347.8 147.06ZM471.9 132.81C476.55 138.85 478.87 147.16 478.87 157.74L478.87 199L460.47 199L460.47 159.08C460.47 152.05 459.33 146.91 457.05 143.65C454.78 140.38 451.17 138.75 446.22 138.75C440.38 138.75 435.58 140.88 431.82 145.13L431.82 199L413.41 199L413.41 87.7L431.82 87.7L431.82 129.55C434.79 127.67 437.8 126.23 440.87 125.24C443.94 124.15 447.3 123.61 450.97 123.61C460.37 123.61 467.35 126.68 471.9 132.81ZM529.05 200.48C521.23 200.48 514.45 198.75 508.71 195.29C502.97 191.83 498.57 187.18 495.5 181.34C492.43 175.5 490.9 169.07 490.9 162.05C490.9 155.02 492.43 148.54 495.5 142.61C498.57 136.67 502.97 131.97 508.71 128.51C514.45 125.05 521.23 123.32 529.05 123.32C536.86 123.32 543.64 125.05 549.38 128.51C555.12 131.97 559.52 136.67 562.59 142.61C565.66 148.54 567.19 155.02 567.19 162.05C567.19 169.07 565.66 175.5 562.59 181.34C559.52 187.18 555.12 191.83 549.38 195.29C543.64 198.75 536.86 200.48 529.05 200.48ZM529.05 185.35C535.08 185.35 539.78 183.22 543.15 178.97C546.61 174.71 548.34 169.07 548.34 162.05C548.34 154.92 546.61 149.23 543.15 144.98C539.78 140.63 535.08 138.45 529.05 138.45C523.01 138.45 518.26 140.63 514.8 144.98C511.43 149.23 509.75 154.92 509.75 162.05C509.75 169.07 511.43 174.71 514.8 178.97C518.26 183.22 523.01 185.35 529.05 185.35ZM588.42 194.84C585.05 190.99 583.37 186.39 583.37 181.04L583.37 139.94L572.83 139.94L574.47 124.8L583.37 124.8L583.37 108.48L601.78 106.55L601.78 124.8L618.11 124.8L618.11 139.94L601.78 139.94L601.78 173.48C601.78 177.43 601.98 180.2 602.37 181.79C602.87 183.27 603.81 184.26 605.19 184.75C606.68 185.15 609.3 185.35 613.06 185.35L618.11 185.35L616.47 200.48L603.26 200.48C596.73 200.48 591.79 198.6 588.42 194.84ZM663.83 200.48C656.01 200.48 649.23 198.75 643.49 195.29C637.75 191.83 633.35 187.18 630.28 181.34C627.21 175.5 625.68 169.07 625.68 162.05C625.68 155.02 627.21 148.54 630.28 142.61C633.35 136.67 637.75 131.97 643.49 128.51C649.23 125.05 656.01 123.32 663.83 123.32C671.64 123.32 678.42 125.05 684.16 128.51C689.9 131.97 694.3 136.67 697.37 142.61C700.44 148.54 701.97 155.02 701.97 162.05C701.97 169.07 700.44 175.5 697.37 181.34C694.3 187.18 689.9 191.83 684.16 195.29C678.42 198.75 671.64 200.48 663.83 200.48ZM663.83 185.35C669.86 185.35 674.56 183.22 677.93 178.97C681.39 174.71 683.12 169.07 683.12 162.05C683.12 154.92 681.39 149.23 677.93 144.98C674.56 140.63 669.86 138.45 663.83 138.45C657.79 138.45 653.04 140.63 649.58 144.98C646.21 149.23 644.53 154.92 644.53 162.05C644.53 169.07 646.21 174.71 649.58 178.97C653.04 183.22 657.79 185.35 663.83 185.35ZM771.59 128.81C776.64 132.27 780.45 136.92 783.02 142.76C785.59 148.59 786.88 155.02 786.88 162.05C786.88 169.07 785.59 175.5 783.02 181.34C780.45 187.18 776.64 191.83 771.59 195.29C766.54 198.75 760.51 200.48 753.48 200.48C749.03 200.48 745.22 200.04 742.05 199.15C738.98 198.16 736.02 196.62 733.15 194.55L733.15 234.91L714.74 234.91L714.74 124.8L729.58 124.8L731.51 131.63C734.68 128.96 737.99 126.98 741.46 125.69C744.92 124.3 748.93 123.61 753.48 123.61C760.51 123.61 766.54 125.34 771.59 128.81ZM763.43 178.97C766.5 174.71 768.03 169.07 768.03 162.05C768.03 155.02 766.5 149.38 763.43 145.13C760.36 140.88 756.11 138.75 750.66 138.75C744.53 138.75 739.93 140.83 736.86 144.98C733.79 149.13 732.26 154.82 732.26 162.05C732.26 169.27 733.79 174.96 736.86 179.11C739.93 183.27 744.53 185.35 750.66 185.35C756.11 185.35 760.36 183.22 763.43 178.97ZM813.3 195.29C807.27 191.73 802.72 187.03 799.65 181.19C796.68 175.26 795.19 168.68 795.19 161.45C795.19 154.53 796.63 148.2 799.5 142.46C802.37 136.72 806.52 132.17 811.97 128.81C817.41 125.34 823.89 123.61 831.41 123.61C838.34 123.61 844.18 125.05 848.93 127.92C853.78 130.79 857.39 134.64 859.76 139.49C862.23 144.34 863.47 149.78 863.47 155.82C863.47 158.79 863.08 162.15 862.29 165.91L814.34 165.91C815.33 172.44 817.91 177.33 822.06 180.6C826.21 183.77 831.21 185.35 837.05 185.35C845.07 185.35 852.49 183.32 859.32 179.26L860.21 194.84C857.04 196.53 853.33 197.91 849.08 199C844.92 199.99 840.37 200.48 835.42 200.48C826.81 200.48 819.44 198.75 813.3 195.29ZM814.79 153.44L844.77 153.44C844.77 149.58 843.68 146.17 841.51 143.2C839.33 140.23 835.96 138.75 831.41 138.75C826.86 138.75 823.2 140.09 820.43 142.76C817.66 145.43 815.78 148.99 814.79 153.44ZM876.69 194.55C872.63 190.49 870.6 185.05 870.6 178.22C870.6 171.79 872.93 166.65 877.58 162.79C882.23 158.83 887.72 156.06 894.05 154.48C900.38 152.8 906.47 151.86 912.31 151.66C912.11 147.31 910.97 144.19 908.9 142.31C906.92 140.43 903.6 139.49 898.95 139.49C895.68 139.49 892.47 139.94 889.3 140.83C886.23 141.72 882.67 143.15 878.62 145.13L876.98 130.14C885.99 125.79 894.99 123.61 904 123.61C912.71 123.61 919.34 125.99 923.89 130.74C928.54 135.49 930.87 143.05 930.87 153.44L930.87 173.48C930.87 177.23 931.02 179.95 931.31 181.64C931.7 183.22 932.3 184.26 933.09 184.75C933.98 185.15 935.42 185.35 937.4 185.35L939.77 185.35L938.14 200.48L931.46 200.48C927.4 200.48 923.99 199.74 921.22 198.26C918.45 196.67 916.32 194.55 914.83 191.88C912.46 194.55 909.19 196.67 905.04 198.26C900.98 199.74 896.67 200.48 892.12 200.48C885.99 200.48 880.84 198.5 876.69 194.55ZM906.22 185.05C908.6 184.06 910.68 182.73 912.46 181.04L912.46 164.13C906.52 164.42 901.27 165.71 896.72 167.98C892.17 170.26 889.9 173.43 889.9 177.48C889.9 180.55 890.69 182.82 892.27 184.31C893.86 185.7 896.38 186.39 899.84 186.39C901.72 186.39 903.85 185.94 906.22 185.05Z" />
	<path id="Solid Color Fill 11" fill-rule="evenodd" class="shp3" d="M129.96 59.33L247.18 59.33C262.8 59.33 275.43 71.95 275.43 87.57L275.43 204.76C275.43 220.38 262.8 233 247.18 233L147.98 233L147.65 158.18L147.6 158.18L147.6 157.65C147.6 129.28 170.13 106.35 198.01 106.35C214.73 106.35 228.25 120.11 228.25 137.13C228.25 154.15 214.73 167.91 198.01 167.91C192.43 167.91 187.93 163.32 187.93 157.65C187.93 151.97 192.43 147.39 198.01 147.39C203.58 147.39 208.09 142.8 208.09 137.13C208.09 131.45 203.58 126.87 198.01 126.87C181.28 126.87 167.77 140.63 167.77 157.65C167.77 174.67 181.28 188.42 198.01 188.42C225.88 188.42 248.41 165.49 248.41 137.13C248.41 108.76 225.88 85.83 198.01 85.83C158.99 85.83 127.44 117.93 127.44 157.65L127.44 158.27L127.28 158.27L127.61 232.91C113.09 231.72 101.71 219.59 101.71 204.76L101.71 87.57C101.71 71.95 114.34 59.33 129.96 59.33Z" />
</svg>